<?xml version="1.0" standalone="no"?>
<!DOCTYPE svg PUBLIC "-//W3C//DTD SVG 20010904//EN"
 "http://www.w3.org/TR/2001/REC-SVG-20010904/DTD/svg10.dtd">
<svg version="1.0" xmlns="http://www.w3.org/2000/svg"
 width="2048.000000pt" height="2048.000000pt" viewBox="0 0 2048.000000 2048.000000"
 preserveAspectRatio="xMidYMid meet">
<metadata>
Created by potrace 1.16, written by Peter Selinger 2001-2019
</metadata>
<g transform="translate(0.000000,2048.000000) scale(0.100000,-0.100000)"
fill="#000000" stroke="none">
<path d="M10296 16542 c-4 -6 -28 -9 -59 -6 -28 3 -81 0 -117 -6 -36 -5 -85
-12 -110 -14 -114 -11 -337 -65 -491 -119 -204 -73 -348 -141 -609 -289 -59
-34 -243 -157 -351 -235 -346 -252 -850 -737 -1238 -1192 l-115 -133 -55 6
c-31 3 -96 11 -146 17 -138 18 -501 15 -615 -4 -352 -60 -545 -213 -581 -459
-38 -263 124 -666 452 -1123 49 -68 89 -131 89 -138 0 -8 -11 -48 -24 -88 -68
-211 -123 -505 -150 -804 -10 -106 -7 -407 4 -505 68 -585 345 -1036 823
-1344 112 -73 269 -153 391 -201 53 -21 96 -44 96 -50 0 -16 -86 -136 -146
-206 -98 -112 -250 -293 -289 -344 -22 -29 -74 -94 -116 -146 -385 -476 -637
-926 -711 -1269 -25 -117 -29 -315 -9 -410 16 -75 65 -189 109 -252 50 -72
155 -174 228 -221 135 -88 299 -135 488 -142 59 -2 114 -9 121 -15 23 -19 27
-102 10 -226 -15 -118 -36 -207 -134 -599 -110 -434 -184 -811 -197 -995 -1
-25 -5 -74 -9 -110 -11 -115 22 -294 70 -375 34 -59 131 -166 200 -221 198
-159 489 -272 810 -315 112 -14 353 -6 452 16 149 33 299 114 364 197 19 24
42 50 51 58 28 24 104 165 158 293 51 120 102 289 146 477 13 58 26 114 29
125 26 109 55 272 95 537 23 148 45 278 49 290 4 12 16 23 27 25 146 23 404
18 428 -8 7 -8 25 -59 40 -114 31 -110 184 -570 209 -625 9 -19 30 -75 48
-125 46 -130 108 -291 136 -355 63 -140 88 -193 139 -297 152 -310 302 -452
538 -513 175 -44 480 -76 509 -52 7 6 23 8 36 5 12 -3 46 -1 74 5 29 6 93 18
142 27 180 32 389 110 506 189 30 20 59 36 65 36 6 0 32 23 58 50 26 28 50 50
54 50 14 1 83 100 108 154 45 100 57 182 50 376 -6 196 -16 259 -95 550 -38
144 -66 230 -125 395 -74 204 -218 549 -286 685 -21 41 -88 197 -149 345 -62
149 -121 288 -132 311 -28 60 -26 78 9 69 52 -14 227 -56 294 -70 193 -43 548
-57 686 -29 238 49 397 165 492 359 69 140 81 193 81 358 0 140 -1 152 -27
292 -24 126 -50 197 -139 380 -82 167 -85 172 -210 310 -70 77 -193 210 -274
295 -205 217 -209 221 -490 549 -213 249 -250 296 -238 308 8 9 54 17 123 23
146 12 207 25 346 70 238 78 504 238 681 409 334 322 542 769 627 1351 12 80
24 161 27 180 3 19 7 159 9 310 l3 275 78 54 c347 241 513 371 660 519 128
127 202 227 256 340 37 79 41 95 42 167 0 69 -4 88 -30 138 -62 124 -211 216
-470 292 -205 60 -496 101 -855 120 l-115 7 -55 106 c-71 136 -254 443 -357
597 -193 289 -398 541 -638 780 -254 255 -465 418 -731 568 -241 135 -538 240
-774 273 -74 11 -128 16 -200 20 -41 3 -91 7 -111 10 -21 3 -39 1 -43 -4z"/>
</g>
</svg>
