<?xml version="1.0" standalone="no"?>
<!DOCTYPE svg PUBLIC "-//W3C//DTD SVG 20010904//EN"
 "http://www.w3.org/TR/2001/REC-SVG-20010904/DTD/svg10.dtd">
<svg version="1.0" xmlns="http://www.w3.org/2000/svg"
 width="2000.000000pt" height="2000.000000pt" viewBox="0 0 2000.000000 2000.000000"
 preserveAspectRatio="xMidYMid meet">
<metadata>
Created by potrace 1.16, written by Peter Selinger 2001-2019
</metadata>
<g transform="translate(0.000000,2000.000000) scale(0.100000,-0.100000)"
fill="#000000" stroke="none">
<path d="M10979 14755 c-104 -38 -198 -114 -238 -193 -19 -37 -1206 -3584
-1216 -3636 -3 -11 -16 -49 -30 -86 -14 -37 -28 -77 -30 -90 -2 -13 -16 -53
-30 -90 -14 -37 -28 -77 -30 -90 -2 -13 -15 -53 -28 -89 -39 -107 -79 -224
-87 -256 -4 -16 -20 -64 -34 -105 -50 -142 -138 -405 -146 -435 -4 -16 -256
-775 -560 -1685 -303 -910 -553 -1662 -555 -1670 -2 -8 -15 -46 -29 -84 -14
-38 -28 -78 -30 -90 -5 -22 -40 -128 -90 -266 -26 -71 -31 -100 -31 -175 0
-85 2 -94 32 -140 18 -28 48 -63 68 -78 68 -54 92 -57 412 -57 330 0 357 4
452 74 90 66 113 113 236 480 62 185 111 336 109 336 -1 0 11 34 27 75 16 42
31 86 33 98 2 12 17 58 32 102 15 44 40 116 55 160 14 44 39 116 54 160 15 44
31 94 35 110 5 17 47 143 93 280 46 138 108 320 136 405 29 85 56 169 61 185
4 17 20 64 34 105 24 66 1724 5174 1906 5725 38 116 106 318 151 450 94 279
101 333 56 422 -29 55 -86 112 -146 143 -38 19 -57 20 -338 19 -219 0 -307 -4
-334 -14z"/>
<path d="M13897 13220 c-69 -18 -121 -52 -278 -186 -182 -155 -200 -174 -230
-251 -29 -74 -33 -202 -7 -248 9 -16 67 -91 128 -165 95 -115 332 -403 435
-529 16 -20 104 -126 195 -237 91 -110 204 -247 251 -305 146 -178 420 -510
514 -624 50 -60 144 -174 210 -255 66 -80 149 -181 185 -224 36 -43 66 -82 68
-87 3 -8 -91 -127 -313 -394 -55 -67 -170 -206 -255 -310 -85 -104 -200 -243
-255 -310 -177 -215 -228 -277 -353 -430 -68 -82 -142 -172 -165 -199 -23 -27
-96 -116 -162 -196 -66 -81 -190 -232 -275 -335 -85 -103 -172 -210 -192 -237
-49 -66 -66 -140 -50 -216 20 -97 23 -100 371 -394 116 -98 170 -123 265 -121
104 2 150 34 290 204 122 146 468 561 1126 1348 195 233 380 454 410 491 112
137 664 797 716 857 77 88 94 129 94 236 0 67 -5 98 -19 130 -20 43 -31 56
-196 252 -51 61 -149 178 -217 260 -144 173 -879 1052 -1132 1355 -94 112
-229 275 -301 361 -71 86 -230 276 -353 422 -219 262 -224 267 -295 301 -78
39 -150 51 -210 36z"/>
<path d="M5720 13200 c-30 -11 -55 -20 -56 -20 -17 0 -118 -111 -309 -341
-130 -156 -269 -322 -309 -369 -80 -94 -254 -302 -451 -539 -71 -87 -265 -319
-431 -517 -811 -970 -965 -1157 -979 -1190 -22 -54 -20 -198 4 -249 10 -22 60
-89 111 -148 50 -60 285 -341 522 -625 237 -284 453 -542 479 -572 26 -30 174
-208 330 -395 156 -187 418 -502 584 -699 165 -198 321 -385 346 -415 109
-131 275 -174 409 -106 43 22 286 221 361 296 20 20 49 62 65 94 23 48 28 73
30 144 2 55 -2 97 -10 116 -8 17 -94 125 -192 241 -99 115 -271 320 -384 454
-113 134 -259 307 -325 385 -66 78 -187 222 -270 320 -235 279 -479 568 -594
704 -274 322 -282 333 -268 350 8 9 119 144 247 301 128 157 275 335 325 395
51 61 125 151 166 201 73 90 278 340 480 585 57 69 166 201 243 295 76 93 156
190 177 215 250 297 350 427 364 473 20 68 19 125 -6 190 -17 48 -44 78 -195
228 -138 137 -185 178 -226 195 -68 29 -162 30 -238 3z"/>
</g>
</svg>
